<svg width="85" height="85" viewBox="0 0 85 85" fill="none" xmlns="http://www.w3.org/2000/svg">
<g id="Group 2 3" clip-path="url(#clip0_1_450)">
<path id="Vector" d="M60.586 58.2514L64.0905 54.761L51.8075 42.4277L48.303 45.9181L60.586 58.2514Z" fill="#FF9100"/>
<path id="Vector_2" d="M54.7452 64.0688L58.2497 60.5784L45.9667 48.2451L42.4622 51.7355L54.7452 64.0688Z" fill="#FF9100"/>
<path id="Vector_3" d="M38.9102 36.487L42.4147 32.9966L30.1317 20.6633L26.6272 24.1536L38.9102 36.487Z" fill="#FF9100"/>
<path id="Vector_4" d="M33.0692 42.3042L36.5737 38.8138L24.2907 26.4805L20.7862 29.9708L33.0692 42.3042Z" fill="#FF9100"/>
<path id="Vector_5" d="M36.6807 45.9329L33.2139 42.4493L20.7976 54.8066L24.2644 58.2902L36.6807 45.9329Z" fill="#FF9100"/>
<path id="Vector_6" d="M42.4588 51.7389L38.9919 48.2553L26.5756 60.6126L30.0425 64.0962L42.4588 51.7389Z" fill="#FF9100"/>
<path id="Vector_7" d="M58.2933 24.1183L54.8264 20.6346L42.4101 32.9919L45.877 36.4756L58.2933 24.1183Z" fill="#FF9100"/>
<path id="Vector_8" d="M64.0714 29.9243L60.6046 26.4407L48.1883 38.798L51.6551 42.2816L64.0714 29.9243Z" fill="#FF9100"/>
<path id="Vector_9" d="M20.7863 29.9708L8.37444 42.3327L4.3284 38.2698L16.7402 25.9081L20.7863 29.9708Z" fill="#D46363"/>
<path id="Vector_10" d="M16.7134 58.8831L0.2398 42.342L4.32843 38.2698L20.8021 54.811L16.7134 58.8831Z" fill="#D46363"/>
<path id="Vector_11" d="M30.0922 64.0578L42.3752 76.3912L38.2866 80.4631L26.0036 68.13L30.0922 64.0578Z" fill="#D46363"/>
<path id="Vector_12" d="M58.9792 67.9466L42.3328 84.5259L38.2866 80.4631L54.933 63.8838L58.9792 67.9466Z" fill="#D46363"/>
<path id="Vector_13" d="M64.0905 54.761L76.5023 42.3993L80.5485 46.4621L68.1366 58.8239L64.0905 54.761Z" fill="#D56363"/>
<path id="Vector_14" d="M68.1635 25.8489L84.6371 42.39L80.5485 46.4621L64.0749 29.921L68.1635 25.8489Z" fill="#D56363"/>
<path id="Vector_15" d="M54.8264 20.6346L42.5435 8.30137L46.6321 4.22925L58.915 16.5625L54.8264 20.6346Z" fill="#D46363"/>
<path id="Vector_16" d="M25.9395 16.7458L42.5859 0.16648L46.6321 4.22922L29.9857 20.8086L25.9395 16.7458Z" fill="#D46363"/>
<path id="Vector_17" d="M39.7733 42.4946C39.7887 43.9198 40.9566 45.0553 42.3819 45.0309C43.8072 45.0064 44.9502 43.8312 44.9348 42.406C44.9195 40.9808 43.7515 39.8453 42.3262 39.8697C40.9009 39.8942 39.7579 41.0694 39.7733 42.4946Z" fill="#D46363"/>
</g>
<defs>
<clipPath id="clip0_1_450">
<rect width="60" height="60" fill="white" transform="translate(42.4264) rotate(45)"/>
</clipPath>
</defs>
</svg>
