<svg width="60" height="61" viewBox="0 0 60 61" fill="none" xmlns="http://www.w3.org/2000/svg">
<g id="Group 2 1" clip-path="url(#clip0_1_311)">
<path id="Vector" d="M54.0308 28.5152L54.0408 23.569L36.6344 23.5334L36.6244 28.4796L54.0308 28.5152Z" fill="#FF9100"/>
<path id="Vector_2" d="M54.0142 36.7588L54.0242 31.8126L36.6178 31.777L36.6078 36.7232L54.0142 36.7588Z" fill="#FF9100"/>
<path id="Vector_3" d="M23.3138 28.4525L23.3238 23.5063L5.91743 23.4708L5.90744 28.4169L23.3138 28.4525Z" fill="#FF9100"/>
<path id="Vector_4" d="M23.2971 36.6961L23.3071 31.7499L5.9007 31.7144L5.89072 36.6605L23.2971 36.6961Z" fill="#FF9100"/>
<path id="Vector_5" d="M28.4166 36.7082L23.5019 36.6964L23.4602 54.2139L28.3749 54.2258L28.4166 36.7082Z" fill="#FF9100"/>
<path id="Vector_6" d="M36.6078 36.728L31.6931 36.7161L31.6514 54.2337L36.5661 54.2456L36.6078 36.728Z" fill="#FF9100"/>
<path id="Vector_7" d="M28.2738 6.00051L23.3591 5.98865L23.3173 23.5062L28.2321 23.5181L28.2738 6.00051Z" fill="#FF9100"/>
<path id="Vector_8" d="M36.465 6.02028L31.5503 6.00842L31.5086 23.526L36.4233 23.5379L36.465 6.02028Z" fill="#FF9100"/>
<path id="Vector_9" d="M5.89075 36.6603L5.85538 54.178L0.121521 54.1661L0.156891 36.6486L5.89075 36.6603Z" fill="#D46363"/>
<path id="Vector_10" d="M23.4549 59.9844L0.109863 59.9367L0.121515 54.1661L23.4665 54.2139L23.4549 59.9844Z" fill="#D46363"/>
<path id="Vector_11" d="M36.5741 54.1832L53.9806 54.2189L53.9688 59.9892L36.5625 59.9538L36.5741 54.1832Z" fill="#D46363"/>
<path id="Vector_12" d="M59.7501 36.5068L59.7027 60.0009L53.9688 59.9892L54.0162 36.4951L59.7501 36.5068Z" fill="#D46363"/>
<path id="Vector_13" d="M54.0408 23.569L54.0762 6.05151L59.8101 6.06325L59.7747 23.5809L54.0408 23.569Z" fill="#D56363"/>
<path id="Vector_14" d="M36.4768 0.244995L59.8217 0.292739L59.8101 6.06323L36.4651 6.0155L36.4768 0.244995Z" fill="#D56363"/>
<path id="Vector_15" d="M23.3591 5.9887L5.95276 5.95312L5.96442 0.182617L23.3707 0.218214L23.3591 5.9887Z" fill="#D46363"/>
<path id="Vector_16" d="M0.183105 23.665L0.230546 0.170837L5.9644 0.182563L5.91697 23.6767L0.183105 23.665Z" fill="#D46363"/>
<path id="Vector_17" d="M28.1721 32.0902C29.1908 33.0871 30.8196 33.0642 31.8101 32.039C32.8007 31.0139 32.7779 29.3747 31.7593 28.3778C30.7406 27.3809 29.1118 27.4038 28.1213 28.429C27.1307 29.4541 27.1535 31.0933 28.1721 32.0902Z" fill="#D46363"/>
</g>
<defs>
<clipPath id="clip0_1_311">
<rect width="60" height="60" fill="white" transform="translate(0 0.165955)"/>
</clipPath>
</defs>
</svg>
