<svg width="42" height="42" viewBox="0 0 42 42" fill="none" xmlns="http://www.w3.org/2000/svg">
<g id="Group 2 2" clip-path="url(#clip0_1_402)">
<path id="Vector" d="M37.8216 19.8444L37.8286 16.3821L25.6441 16.3572L25.6371 19.8195L37.8216 19.8444Z" fill="white"/>
<path id="Vector_2" d="M37.8099 25.6149L37.8169 22.1526L25.6325 22.1277L25.6255 25.59L37.8099 25.6149Z" fill="white"/>
<path id="Vector_3" d="M16.3197 19.8006L16.3267 16.3383L4.14221 16.3133L4.13522 19.7756L16.3197 19.8006Z" fill="white"/>
<path id="Vector_4" d="M16.308 25.5711L16.3149 22.1088L4.13049 22.0839L4.1235 25.5462L16.308 25.5711Z" fill="white"/>
<path id="Vector_5" d="M19.8916 25.5796L16.4513 25.5713L16.4221 37.8336L19.8624 37.8419L19.8916 25.5796Z" fill="white"/>
<path id="Vector_6" d="M25.6255 25.5934L22.1852 25.5851L22.156 37.8474L25.5963 37.8557L25.6255 25.5934Z" fill="white"/>
<path id="Vector_7" d="M19.7916 4.08423L16.3513 4.07593L16.3221 16.3382L19.7624 16.3465L19.7916 4.08423Z" fill="white"/>
<path id="Vector_8" d="M25.5255 4.09802L22.0852 4.08972L22.056 16.352L25.4963 16.3603L25.5255 4.09802Z" fill="white"/>
<path id="Vector_9" d="M4.12351 25.5461L4.09875 37.8085L0.0850525 37.8002L0.109811 25.5379L4.12351 25.5461Z" fill="white"/>
<path id="Vector_10" d="M16.4184 41.8729L0.0769043 41.8395L0.0850602 37.8001L16.4265 37.8335L16.4184 41.8729Z" fill="white"/>
<path id="Vector_11" d="M25.6019 37.8121L37.7864 37.837L37.7781 41.8763L25.5938 41.8514L25.6019 37.8121Z" fill="white"/>
<path id="Vector_12" d="M41.8251 25.4386L41.7919 41.8845L37.7781 41.8763L37.8113 25.4304L41.8251 25.4386Z" fill="white"/>
<path id="Vector_13" d="M37.8286 16.3821L37.8534 4.11987L41.8671 4.12809L41.8423 16.3905L37.8286 16.3821Z" fill="white"/>
<path id="Vector_14" d="M25.5337 0.0552979L41.8752 0.0887186L41.8671 4.12806L25.5256 4.09465L25.5337 0.0552979Z" fill="white"/>
<path id="Vector_15" d="M16.3513 4.07592L4.16693 4.05101L4.17509 0.0116577L16.3595 0.0365753L16.3513 4.07592Z" fill="white"/>
<path id="Vector_16" d="M0.128174 16.4494L0.161382 0.00341797L4.17508 0.0116261L4.14188 16.4575L0.128174 16.4494Z" fill="white"/>
<path id="Vector_17" d="M19.7205 22.347C20.4336 23.0448 21.5737 23.0287 22.2671 22.3111C22.9605 21.5935 22.9446 20.4461 22.2315 19.7483C21.5184 19.0504 20.3783 19.0665 19.6849 19.7841C18.9915 20.5017 19.0074 21.6491 19.7205 22.347Z" fill="white"/>
</g>
<defs>
<clipPath id="clip0_1_402">
<rect width="42" height="42" fill="white"/>
</clipPath>
</defs>
</svg>
