<svg width="85" height="85" viewBox="0 0 85 85" fill="none" xmlns="http://www.w3.org/2000/svg">
<g clip-path="url(#clip0_1_432)">
<path d="M58.2514 24.2668L54.761 20.7623L42.4277 33.0453L45.9181 36.5498L58.2514 24.2668Z" fill="#FF9100"/>
<path d="M64.0688 30.1076L60.5784 26.6031L48.2451 38.8861L51.7355 42.3906L64.0688 30.1076Z" fill="#FF9100"/>
<path d="M36.487 45.9426L32.9966 42.4381L20.6633 54.7211L24.1536 58.2256L36.487 45.9426Z" fill="#FF9100"/>
<path d="M42.3042 51.7836L38.8138 48.2791L26.4805 60.562L29.9708 64.0666L42.3042 51.7836Z" fill="#FF9100"/>
<path d="M45.9329 48.1721L42.4493 51.6389L54.8066 64.0552L58.2902 60.5884L45.9329 48.1721Z" fill="#FF9100"/>
<path d="M51.7389 42.394L48.2553 45.8608L60.6126 58.2771L64.0962 54.8103L51.7389 42.394Z" fill="#FF9100"/>
<path d="M24.1183 26.5595L20.6346 30.0264L32.9919 42.4427L36.4756 38.9758L24.1183 26.5595Z" fill="#FF9100"/>
<path d="M29.9243 20.7814L26.4407 24.2482L38.798 36.6645L42.2816 33.1977L29.9243 20.7814Z" fill="#FF9100"/>
<path d="M29.9708 64.0664L42.3327 76.4783L38.2698 80.5244L25.9081 68.1126L29.9708 64.0664Z" fill="#D46363"/>
<path d="M58.8831 68.1393L42.342 84.613L38.2698 80.5244L54.811 64.0507L58.8831 68.1393Z" fill="#D46363"/>
<path d="M64.0578 54.7606L76.3912 42.4776L80.4631 46.5662L68.13 58.8492L64.0578 54.7606Z" fill="#D46363"/>
<path d="M67.9466 25.8736L84.5259 42.5199L80.4631 46.5662L63.8838 29.9198L67.9466 25.8736Z" fill="#D46363"/>
<path d="M54.761 20.7623L42.3993 8.35044L46.4621 4.30425L58.8239 16.7162L54.761 20.7623Z" fill="#D56363"/>
<path d="M25.8489 16.6893L42.39 0.21568L46.4621 4.30425L29.921 20.7779L25.8489 16.6893Z" fill="#D56363"/>
<path d="M20.6346 30.0263L8.30137 42.3093L4.22925 38.2207L16.5625 25.9378L20.6346 30.0263Z" fill="#D46363"/>
<path d="M16.7458 58.9133L0.16648 42.2669L4.22922 38.2207L20.8086 54.8671L16.7458 58.9133Z" fill="#D46363"/>
<path d="M42.4946 45.0795C43.9198 45.0641 45.0553 43.8962 45.0309 42.4709C45.0064 41.0455 43.8312 39.9026 42.406 39.9179C40.9808 39.9333 39.8453 41.1013 39.8697 42.5266C39.8942 43.9519 41.0694 45.0949 42.4946 45.0795Z" fill="#D46363"/>
</g>
<defs>
<clipPath id="clip0_1_432">
<rect width="60" height="60" fill="white" transform="translate(0 42.4264) rotate(-45)"/>
</clipPath>
</defs>
</svg>
